<svg width="40" height="40" viewBox="0 0 40 40" fill="none" xmlns="http://www.w3.org/2000/svg">
  <g filter="url(#shadow)">
    <path d="M19.5 32C15.5 32 9 30 6 28V12C9 14 15.5 16 19.5 16V32Z" fill="#fafafa" stroke="#1a1a1a" stroke-width="1.5" stroke-linejoin="round"/>
    <path d="M20.5 32C24.5 32 31 30 34 28V12C31 14 24.5 16 20.5 16V32Z" fill="#fafafa" stroke="#1a1a1a" stroke-width="1.5" stroke-linejoin="round"/>
  </g>
  <line x1="20" y1="16" x2="20" y2="32" stroke="#1a1a1a" stroke-width="1.5" stroke-linecap="round"/>
  <path d="M9 19.5C12 20.5 15.5 21.5 18 21.5" stroke="#cccccc" stroke-width="1" stroke-linecap="round"/>
  <path d="M9 23.5C12 24.5 15.5 25.5 18 25.5" stroke="#cccccc" stroke-width="1" stroke-linecap="round"/>
  <path d="M9 27.5C12 28.5 15.5 29.5 18 29.5" stroke="#cccccc" stroke-width="1" stroke-linecap="round"/>
  <path d="M31 19.5C28 20.5 24.5 21.5 22 21.5" stroke="#cccccc" stroke-width="1" stroke-linecap="round"/>
  <path d="M31 23.5C28 24.5 24.5 25.5 22 25.5" stroke="#cccccc" stroke-width="1" stroke-linecap="round"/>
  <path d="M31 27.5C28 28.5 24.5 29.5 22 29.5" stroke="#cccccc" stroke-width="1" stroke-linecap="round"/>
  <path d="M20 5 L21.5 9.5 L26 11 L21.5 12.5 L20 17 L18.5 12.5 L14 11 L18.5 9.5 Z" fill="#d4a843"/>
  <defs>
    <filter id="shadow" x="-2" y="-2" width="44" height="44" filterUnits="userSpaceOnUse" color-interpolation-filters="sRGB">
      <feDropShadow dx="0" dy="2" stdDeviation="3" flood-opacity="0.08" />
    </filter>
  </defs>
</svg>
